Coordinates
version=1
nRows=7
nColumns=40
inDegrees=yes

Units are S.I. units (second, meters, Newtons, ...)
Angles are in degrees.

endheader
time	pelvis_tilt	pelvis_list	pelvis_rotation	pelvis_tx	pelvis_ty	pelvis_tz	hip_flexion_r	hip_adduction_r	hip_rotation_r	knee_angle_r	knee_angle_r_beta	ankle_angle_r	subtalar_angle_r	mtp_angle_r	hip_flexion_l	hip_adduction_l	hip_rotation_l	knee_angle_l	knee_angle_l_beta	ankle_angle_l	subtalar_angle_l	mtp_angle_l	lumbar_extension	lumbar_bending	lumbar_rotation	arm_flex_r	arm_add_r	arm_rot_r	elbow_flex_r	pro_sup_r	wrist_flex_r	wrist_dev_r	arm_flex_l	arm_add_l	arm_rot_l	elbow_flex_l	pro_sup_l	wrist_flex_l	wrist_dev_l
     19.58114286	     -6.94702982	     -4.48552556	    -11.88228163	      0.93946483	      0.93189430	      0.43720470	     22.57905508	     -1.64957354	     -5.76321639	      9.35769897	      9.35769897	      3.05106163	     17.27203779	     11.76159014	      7.55650358	     -6.63762163	    -14.44952237	     14.99220097	     14.99220097	     14.49935090	     -9.55944338	     -2.04834247	     -8.26449838	      5.05154530	      2.54819728	    -23.90755426	    -11.58837416	     -3.28921386	     33.05932897	     45.75942753	      0.00000000	      0.00000000	     41.15487803	    -22.10431847	    -10.69614752	     76.27762867	     48.36199970	      0.00000000	      0.00000000
     19.60228571	     -6.98534203	     -4.18791474	    -11.74472763	      0.94145709	      0.93108980	      0.44112605	     22.30053038	     -1.59821302	     -5.56460433	      9.19035019	      9.19035019	      2.93050088	     17.57058174	     11.62062344	      6.69491100	     -6.44696766	    -14.90589261	     14.05929370	     14.05929370	     14.51768331	     -8.55112056	     -2.62605846	     -8.04087454	      4.80943360	      2.66355268	    -23.60309505	    -11.39132386	     -2.85939825	     33.24530306	     45.72753609	      0.00000000	      0.00000000	     41.90766592	    -22.00870857	    -10.92079576	     77.36436561	     48.39807053	      0.00000000	      0.00000000
     19.62342857	     -7.01492234	     -3.98623549	    -11.52368209	      0.94386843	      0.93012807	      0.44526119	     21.93456000	     -1.47736239	     -5.19138965	      9.27219465	      9.27219465	      2.15713211	     17.53063525	      8.43830615	      5.83228629	     -6.41858921	    -15.53857944	     13.17616445	     13.17616445	     14.00254508	     -7.41940587	     -4.87593629	     -7.79721331	      4.69505418	      2.11755185	    -22.97625533	    -11.85088220	     -0.54237156	     33.67786153	     45.58073075	      0.00000000	      0.00000000	     41.62410971	    -22.32220083	    -12.05227935	     79.53137116	     48.48676624	      0.00000000	      0.00000000
     19.64457143	     -6.99963834	     -3.71827756	    -11.23709446	      0.94651702	      0.92946060	      0.44939807	     21.68222411	     -1.52355993	     -4.82666227	      9.93671323	      9.93671323	      2.54888670	     17.34908987	      7.74217408	      4.91062567	     -6.20869032	    -15.59326664	     12.27009048	     12.27009048	     14.09070236	     -6.72258584	     -4.85206886	     -7.56059594	      4.54640760	      2.19342260	    -22.54583715	    -11.87792569	     -0.31856555	     33.81447714	     45.56650170	      0.00000000	      0.00000000	     42.10976003	    -22.11504085	    -12.06855579	     80.00729328	     48.49702423	      0.00000000	      0.00000000
     19.66571429	     -6.90481120	     -3.42955900	    -10.95282044	      0.94947428	      0.92893000	      0.45370464	     21.39416961	     -1.61352529	     -4.30636904	     10.82117078	     10.82117078	      2.97831253	     16.91123501	      6.35107990	      3.83229589	     -5.97045417	    -15.81311685	     11.25882361	     11.25882361	     14.12071848	     -5.80855405	     -4.90104972	     -7.38842541	      4.39927772	      2.28665316	    -22.14339779	    -12.04027806	     -0.02293861	     33.93333857	     45.54952679	      0.00000000	      0.00000000	     42.20882038	    -21.86086667	    -12.22524336	     80.65933590	     48.51613900	      0.00000000	      0.00000000
     19.68685714	     -6.78907078	     -3.26198122	    -10.58100114	      0.95259649	      0.92840892	      0.45828793	     20.78839520	     -1.52867130	     -3.61656395	     11.15487492	     11.15487492	      2.05048539	     15.96284444	      1.04850178	      2.85577205	     -5.94863447	    -16.03784866	     10.53246796	     10.53246796	     14.12791649	     -4.77116070	     -5.29131616	     -7.28838269	      4.36644714	      1.75829483	    -21.36689853	    -12.65834211	      1.41513895	     34.18313414	     45.47452179	      0.00000000	      0.00000000	     41.50994524	    -21.90561538	    -13.23459947	     82.39911141	     48.59036617	      0.00000000	      0.00000000
     19.70800000	     -6.70549998	     -3.16427341	    -10.17915466	      0.95545290	      0.92813267	      0.46297690	     20.56050719	     -1.44737551	     -3.22973672	     12.21648730	     12.21648730	      2.83386441	     15.13481860	      0.35728117	      2.00461971	     -6.00661331	    -15.94286737	      9.94031199	      9.94031199	     14.14289303	     -4.26975787	     -5.11791347	     -7.19368390	      4.42504145	      1.75950050	    -20.88399733	    -13.01405170	      1.52351716	     34.30567415	     45.46984311	      0.00000000	      0.00000000	     41.48320679	    -21.67986926	    -13.17579040	     82.46489178	     48.58467605	      0.00000000	      0.00000000
